# xmcd
#
# Track frame offsets:
#	150
#	17042
#	39507
#	61220
#	83969
#	100891
#	116433
#	133937
#	148498
#	163683
#	182751
#	200701
#	219656
#	240829
#	257812
#
# Disc length: 3750 seconds
#
# Revision: 1
# Processed by: cddbd v1.5.2PL0 Copyright (c) Steve Scherf et al.
# Submitted via: audiograbber 1.83.01
#
DISCID=dc0ea40f
DTITLE=Chartbuster - CB-E3-21
DYEAR=1900
DGENRE=
TTITLE0=INXS - What You Need
TTITLE1=Steve Winwood - Back In The High Life
TTITLE2=Cyndi Lauper - All Through The Night
TTITLE3=Joe Cocker - With A Little Help From My Friends
TTITLE4=Huey Lewis and The News - Doin' It All (For My Baby)
TTITLE5=Barbara Streisand - Somewhere
TTITLE6=Pseudo Echo - Funky Town
TTITLE7=Sheena Easton - For Your Eyes Only
TTITLE8=INXS - Need You Tonight
TTITLE9=Jody Watley - Looking For A New Love
TTITLE10=Elton John - Candle In The Wind
TTITLE11=Natalie Cole - Miss You Like Crazy
TTITLE12=Milli Vanilli - Girl I'm Gonna Miss You
TTITLE13=Glenn Medelros - She Ain't Worth It
TTITLE14=Whitney Houston - One Moment In Time
EXTD=
EXTT0=
EXTT1=
EXTT2=
EXTT3=
EXTT4=
EXTT5=
EXTT6=
EXTT7=
EXTT8=
EXTT9=
EXTT10=
EXTT11=
EXTT12=
EXTT13=
EXTT14=
PLAYORDER=
